<?xml version="1.0" encoding="UTF-8"?>
<svg xmlns="http://www.w3.org/2000/svg" xmlns:xlink="http://www.w3.org/1999/xlink" width="26pt" height="26pt" viewBox="0 0 26 26" version="1.1">
<g id="surface1">
<path style=" stroke:none;fill-rule:nonzero;fill:rgb(0%,0%,0%);fill-opacity:1;" d="M 26.007812 15.8125 L 26.007812 25.429688 L 20.433594 25.429688 L 20.433594 16.457031 C 20.433594 14.203125 19.625 12.667969 17.609375 12.667969 C 16.070312 12.667969 15.152344 13.703125 14.75 14.707031 C 14.601562 15.0625 14.5625 15.5625 14.5625 16.066406 L 14.5625 25.429688 L 8.988281 25.429688 C 8.988281 25.429688 9.0625 10.234375 8.988281 8.660156 L 14.5625 8.660156 L 14.5625 11.039062 C 14.550781 11.054688 14.539062 11.074219 14.527344 11.09375 L 14.5625 11.09375 L 14.5625 11.039062 C 15.304688 9.898438 16.628906 8.265625 19.589844 8.265625 C 23.257812 8.265625 26.007812 10.664062 26.007812 15.8125 Z M 3.15625 0.578125 C 1.246094 0.578125 0 1.828125 0 3.472656 C 0 5.085938 1.210938 6.375 3.082031 6.375 L 3.117188 6.375 C 5.0625 6.375 6.273438 5.085938 6.273438 3.472656 C 6.234375 1.828125 5.0625 0.578125 3.15625 0.578125 Z M 0.332031 25.429688 L 5.90625 25.429688 L 5.90625 8.660156 L 0.332031 8.660156 Z M 0.332031 25.429688 "/>
</g>
</svg>
