<?xml version="1.0" encoding="UTF-8"?>
<svg xmlns="http://www.w3.org/2000/svg" xmlns:xlink="http://www.w3.org/1999/xlink" width="26pt" height="26pt" viewBox="0 0 26 26" version="1.1">
<g id="surface1">
<path style=" stroke:none;fill-rule:nonzero;fill:rgb(0.392157%,0%,0.784314%);fill-opacity:1;" d="M 26 4.9375 C 25.042969 5.363281 24.015625 5.652344 22.9375 5.777344 C 24.039062 5.121094 24.882812 4.074219 25.28125 2.832031 C 24.25 3.441406 23.109375 3.882812 21.894531 4.125 C 20.917969 3.085938 19.535156 2.441406 18 2.441406 C 15.054688 2.441406 12.667969 4.828125 12.667969 7.773438 C 12.667969 8.191406 12.714844 8.597656 12.804688 8.988281 C 8.371094 8.765625 4.441406 6.640625 1.8125 3.414062 C 1.351562 4.203125 1.089844 5.117188 1.089844 6.097656 C 1.089844 7.945312 2.03125 9.578125 3.460938 10.535156 C 2.589844 10.503906 1.765625 10.265625 1.046875 9.863281 L 1.046875 9.933594 C 1.046875 12.515625 2.886719 14.671875 5.324219 15.160156 C 4.878906 15.28125 4.40625 15.347656 3.917969 15.347656 C 3.574219 15.347656 3.242188 15.3125 2.914062 15.25 C 3.59375 17.371094 5.5625 18.910156 7.894531 18.953125 C 6.070312 20.382812 3.769531 21.234375 1.273438 21.234375 C 0.839844 21.234375 0.417969 21.207031 0 21.160156 C 2.359375 22.675781 5.164062 23.558594 8.175781 23.558594 C 17.988281 23.558594 23.351562 15.433594 23.351562 8.386719 L 23.332031 7.695312 C 24.378906 6.945312 25.285156 6.007812 26 4.9375 Z M 26 4.9375 "/>
</g>
</svg>
