<?xml version="1.0" encoding="UTF-8"?>
<svg xmlns="http://www.w3.org/2000/svg" xmlns:xlink="http://www.w3.org/1999/xlink" width="23pt" height="23pt" viewBox="0 0 23 23" version="1.1">
<g id="surface1">
<path style=" stroke:none;fill-rule:nonzero;fill:rgb(0%,0%,0%);fill-opacity:1;" d="M 15.582031 22.796875 C 15.46875 22.835938 15.355469 22.886719 15.238281 22.90625 C 14.792969 22.984375 14.507812 22.753906 14.503906 22.300781 C 14.5 21.453125 14.5 20.609375 14.511719 19.765625 C 14.527344 18.792969 14.503906 17.832031 13.765625 17.027344 C 14.203125 16.949219 14.597656 16.894531 14.980469 16.808594 C 17.515625 16.222656 18.835938 14.625 19.003906 11.964844 C 19.089844 10.613281 18.847656 9.375 17.949219 8.308594 C 17.882812 8.234375 17.878906 8.0625 17.910156 7.953125 C 18.152344 7.074219 18.082031 6.214844 17.800781 5.351562 C 17.734375 5.136719 17.621094 5.070312 17.40625 5.085938 C 16.660156 5.125 15.980469 5.386719 15.378906 5.789062 C 14.796875 6.179688 14.257812 6.265625 13.566406 6.105469 C 12.050781 5.765625 10.523438 5.863281 9.007812 6.214844 C 8.835938 6.257812 8.605469 6.203125 8.449219 6.109375 C 7.738281 5.691406 7.027344 5.289062 6.207031 5.125 C 5.570312 5.003906 5.515625 5.035156 5.347656 5.648438 C 5.136719 6.421875 5.113281 7.195312 5.332031 7.972656 C 5.363281 8.085938 5.332031 8.265625 5.253906 8.347656 C 3.574219 10.222656 4.183594 13.765625 5.316406 15.125 C 6.195312 16.175781 7.367188 16.652344 8.664062 16.898438 C 8.890625 16.941406 9.117188 16.972656 9.34375 17.011719 C 9.148438 17.519531 8.972656 17.996094 8.777344 18.464844 C 8.738281 18.554688 8.613281 18.632812 8.511719 18.671875 C 7.238281 19.164062 6.144531 18.800781 5.417969 17.644531 C 5.027344 17.027344 4.527344 16.570312 3.78125 16.433594 C 3.757812 16.429688 3.734375 16.417969 3.710938 16.421875 C 3.511719 16.472656 3.3125 16.527344 3.113281 16.582031 C 3.226562 16.738281 3.304688 16.949219 3.457031 17.042969 C 4.085938 17.441406 4.496094 18.011719 4.769531 18.683594 C 5.195312 19.738281 6.023438 20.210938 7.097656 20.300781 C 7.625 20.34375 8.15625 20.308594 8.730469 20.308594 C 8.730469 20.960938 8.753906 21.710938 8.71875 22.453125 C 8.703125 22.855469 8.300781 23.015625 7.816406 22.851562 C 6.539062 22.414062 5.351562 21.785156 4.328125 20.902344 C 0.628906 17.714844 -0.796875 13.6875 0.433594 8.972656 C 1.65625 4.273438 4.851562 1.390625 9.628906 0.484375 C 16.238281 -0.765625 22.496094 4.046875 23.152344 10.757812 C 23.671875 16.046875 20.558594 20.996094 15.582031 22.796875 Z M 9.351562 16.988281 C 9.347656 16.996094 9.34375 17.003906 9.339844 17.011719 C 9.351562 17.015625 9.363281 17.015625 9.375 17.019531 C 9.386719 17.019531 9.394531 17.035156 9.351562 16.988281 Z M 6.359375 19.078125 C 6.464844 19.140625 6.5625 19.222656 6.675781 19.257812 C 6.714844 19.269531 6.789062 19.175781 6.921875 19.078125 C 6.738281 19.007812 6.628906 18.945312 6.515625 18.929688 C 6.46875 18.925781 6.410156 19.027344 6.359375 19.078125 Z M 7.300781 19.238281 C 7.316406 19.308594 7.453125 19.394531 7.535156 19.394531 C 7.613281 19.390625 7.691406 19.289062 7.769531 19.230469 C 7.695312 19.164062 7.625 19.101562 7.40625 18.902344 C 7.359375 19.039062 7.28125 19.152344 7.300781 19.238281 Z M 8.457031 18.960938 C 8.359375 18.984375 8.277344 19.074219 8.1875 19.136719 C 8.242188 19.203125 8.292969 19.261719 8.375 19.367188 C 8.492188 19.261719 8.570312 19.1875 8.648438 19.117188 C 8.582031 19.058594 8.507812 18.949219 8.457031 18.960938 Z M 5.59375 18.570312 C 5.648438 18.671875 5.730469 18.761719 5.84375 18.90625 C 5.917969 18.78125 6 18.6875 5.988281 18.667969 C 5.914062 18.574219 5.816406 18.496094 5.722656 18.425781 C 5.714844 18.421875 5.582031 18.550781 5.59375 18.570312 Z M 5.59375 18.570312 "/>
</g>
</svg>
