<?xml version="1.0" encoding="UTF-8"?>
<svg xmlns="http://www.w3.org/2000/svg" xmlns:xlink="http://www.w3.org/1999/xlink" width="23pt" height="23pt" viewBox="0 0 23 23" version="1.1">
<g id="surface1">
<path style=" stroke:none;fill-rule:nonzero;fill:rgb(0%,0%,0%);fill-opacity:1;" d="M 22.660156 13.777344 L 22.660156 22.15625 L 17.800781 22.15625 L 17.800781 14.335938 C 17.800781 12.375 17.097656 11.035156 15.339844 11.035156 C 14 11.035156 13.199219 11.9375 12.851562 12.8125 C 12.722656 13.121094 12.6875 13.558594 12.6875 13.996094 L 12.6875 22.15625 L 7.832031 22.15625 C 7.832031 22.15625 7.894531 8.917969 7.832031 7.542969 L 12.6875 7.542969 L 12.6875 9.617188 C 12.675781 9.632812 12.667969 9.648438 12.65625 9.664062 L 12.6875 9.664062 L 12.6875 9.617188 C 13.332031 8.625 14.488281 7.199219 17.066406 7.199219 C 20.261719 7.199219 22.660156 9.289062 22.660156 13.777344 Z M 2.75 0.503906 C 1.085938 0.503906 0 1.59375 0 3.027344 C 0 4.429688 1.054688 5.554688 2.683594 5.554688 L 2.714844 5.554688 C 4.410156 5.554688 5.464844 4.429688 5.464844 3.027344 C 5.429688 1.59375 4.410156 0.503906 2.75 0.503906 Z M 0.289062 22.15625 L 5.144531 22.15625 L 5.144531 7.542969 L 0.289062 7.542969 Z M 0.289062 22.15625 "/>
</g>
</svg>
