<?xml version="1.0" encoding="UTF-8"?>
<svg xmlns="http://www.w3.org/2000/svg" xmlns:xlink="http://www.w3.org/1999/xlink" width="23pt" height="23pt" viewBox="0 0 23 23" version="1.1">
<g id="surface1">
<path style=" stroke:none;fill-rule:nonzero;fill:rgb(0.392157%,0%,0.784314%);fill-opacity:1;" d="M 22.652344 4.300781 C 21.816406 4.671875 20.921875 4.925781 19.984375 5.035156 C 20.941406 4.460938 21.679688 3.550781 22.023438 2.46875 C 21.125 3 20.132812 3.382812 19.074219 3.59375 C 18.222656 2.6875 17.019531 2.128906 15.683594 2.128906 C 13.117188 2.128906 11.035156 4.207031 11.035156 6.773438 C 11.035156 7.136719 11.078125 7.492188 11.15625 7.832031 C 7.292969 7.636719 3.871094 5.785156 1.578125 2.972656 C 1.175781 3.660156 0.949219 4.457031 0.949219 5.3125 C 0.949219 6.921875 1.769531 8.34375 3.015625 9.179688 C 2.257812 9.152344 1.539062 8.945312 0.910156 8.59375 L 0.910156 8.652344 C 0.910156 10.902344 2.515625 12.78125 4.636719 13.207031 C 4.25 13.3125 3.839844 13.371094 3.414062 13.371094 C 3.113281 13.371094 2.824219 13.339844 2.539062 13.285156 C 3.132812 15.132812 4.847656 16.476562 6.878906 16.511719 C 5.289062 17.757812 3.285156 18.5 1.109375 18.5 C 0.730469 18.5 0.363281 18.476562 0 18.433594 C 2.054688 19.753906 4.5 20.523438 7.121094 20.523438 C 15.671875 20.523438 20.34375 13.445312 20.34375 7.304688 L 20.328125 6.703125 C 21.238281 6.050781 22.027344 5.234375 22.652344 4.300781 Z M 22.652344 4.300781 "/>
</g>
</svg>
