<?xml version="1.0" encoding="UTF-8"?>
<svg xmlns="http://www.w3.org/2000/svg" xmlns:xlink="http://www.w3.org/1999/xlink" width="20pt" height="20pt" viewBox="0 0 20 20" version="1.1">
<g id="surface1">
<path style=" stroke:none;fill-rule:nonzero;fill:rgb(0%,0%,0%);fill-opacity:1;" d="M 13.546875 19.824219 C 13.449219 19.859375 13.351562 19.902344 13.25 19.917969 C 12.863281 19.988281 12.613281 19.789062 12.613281 19.390625 C 12.609375 18.65625 12.609375 17.921875 12.621094 17.1875 C 12.632812 16.339844 12.613281 15.503906 11.96875 14.808594 C 12.351562 14.738281 12.691406 14.691406 13.023438 14.613281 C 15.230469 14.109375 16.378906 12.714844 16.523438 10.40625 C 16.597656 9.230469 16.390625 8.152344 15.609375 7.222656 C 15.550781 7.160156 15.546875 7.011719 15.574219 6.917969 C 15.785156 6.152344 15.722656 5.402344 15.480469 4.652344 C 15.421875 4.46875 15.320312 4.410156 15.136719 4.421875 C 14.488281 4.457031 13.894531 4.683594 13.371094 5.035156 C 12.867188 5.375 12.398438 5.449219 11.796875 5.308594 C 10.476562 5.011719 9.148438 5.097656 7.832031 5.40625 C 7.683594 5.441406 7.480469 5.390625 7.347656 5.3125 C 6.726562 4.949219 6.109375 4.597656 5.394531 4.457031 C 4.84375 4.351562 4.796875 4.378906 4.648438 4.910156 C 4.464844 5.582031 4.449219 6.253906 4.636719 6.929688 C 4.664062 7.03125 4.636719 7.1875 4.570312 7.261719 C 3.109375 8.890625 3.636719 11.972656 4.621094 13.152344 C 5.386719 14.066406 6.40625 14.480469 7.535156 14.695312 C 7.730469 14.730469 7.925781 14.757812 8.125 14.792969 C 7.953125 15.234375 7.804688 15.648438 7.628906 16.058594 C 7.597656 16.136719 7.492188 16.203125 7.402344 16.234375 C 6.296875 16.664062 5.34375 16.347656 4.710938 15.34375 C 4.371094 14.808594 3.9375 14.40625 3.289062 14.292969 C 3.265625 14.289062 3.246094 14.277344 3.226562 14.28125 C 3.054688 14.324219 2.878906 14.375 2.707031 14.421875 C 2.804688 14.554688 2.875 14.738281 3.003906 14.820312 C 3.554688 15.167969 3.910156 15.664062 4.148438 16.246094 C 4.519531 17.164062 5.238281 17.574219 6.171875 17.652344 C 6.628906 17.691406 7.089844 17.660156 7.589844 17.660156 C 7.589844 18.226562 7.613281 18.878906 7.582031 19.523438 C 7.566406 19.875 7.21875 20.011719 6.796875 19.871094 C 5.683594 19.488281 4.652344 18.945312 3.761719 18.175781 C 0.546875 15.40625 -0.695312 11.902344 0.375 7.804688 C 1.441406 3.714844 4.21875 1.210938 8.371094 0.421875 C 14.117188 -0.664062 19.5625 3.519531 20.132812 9.355469 C 20.582031 13.953125 17.875 18.257812 13.546875 19.824219 Z M 8.128906 14.769531 C 8.128906 14.78125 8.125 14.785156 8.121094 14.792969 C 8.132812 14.792969 8.140625 14.796875 8.152344 14.796875 C 8.160156 14.800781 8.167969 14.8125 8.128906 14.769531 Z M 5.53125 16.589844 C 5.621094 16.644531 5.707031 16.714844 5.804688 16.746094 C 5.839844 16.757812 5.90625 16.675781 6.019531 16.589844 C 5.859375 16.527344 5.765625 16.476562 5.664062 16.460938 C 5.625 16.457031 5.574219 16.542969 5.53125 16.589844 Z M 6.351562 16.730469 C 6.363281 16.789062 6.480469 16.863281 6.550781 16.863281 C 6.621094 16.863281 6.6875 16.773438 6.753906 16.71875 C 6.691406 16.664062 6.632812 16.609375 6.441406 16.4375 C 6.402344 16.558594 6.332031 16.652344 6.351562 16.730469 Z M 7.355469 16.488281 C 7.269531 16.507812 7.199219 16.585938 7.121094 16.640625 C 7.167969 16.695312 7.210938 16.75 7.285156 16.839844 C 7.382812 16.75 7.453125 16.683594 7.519531 16.625 C 7.464844 16.574219 7.398438 16.476562 7.355469 16.488281 Z M 4.863281 16.148438 C 4.910156 16.238281 4.984375 16.3125 5.082031 16.4375 C 5.148438 16.332031 5.21875 16.25 5.207031 16.234375 C 5.144531 16.152344 5.058594 16.085938 4.976562 16.023438 C 4.96875 16.019531 4.855469 16.128906 4.863281 16.148438 Z M 4.863281 16.148438 "/>
</g>
</svg>
