<?xml version="1.0" encoding="UTF-8"?>
<svg xmlns="http://www.w3.org/2000/svg" xmlns:xlink="http://www.w3.org/1999/xlink" width="20pt" height="20pt" viewBox="0 0 20 20" version="1.1">
<g id="surface1">
<path style=" stroke:none;fill-rule:nonzero;fill:rgb(0%,0%,0%);fill-opacity:1;" d="M 17.167969 14.082031 C 17.289062 14.207031 17.382812 14.167969 17.382812 13.996094 L 17.382812 5.746094 C 17.382812 5.574219 17.277344 5.523438 17.144531 5.636719 L 12.96875 9.191406 C 12.835938 9.304688 12.824219 9.496094 12.945312 9.621094 Z M 17.167969 14.082031 "/>
<path style=" stroke:none;fill-rule:nonzero;fill:rgb(0%,0%,0%);fill-opacity:1;" d="M 16.585938 4.878906 C 16.71875 4.769531 16.683594 4.675781 16.511719 4.675781 L 3.148438 4.675781 C 2.976562 4.675781 2.945312 4.769531 3.074219 4.878906 L 9.640625 10.386719 C 9.773438 10.496094 9.988281 10.496094 10.121094 10.382812 Z M 16.585938 4.878906 "/>
<path style=" stroke:none;fill-rule:nonzero;fill:rgb(0%,0%,0%);fill-opacity:1;" d="M 2.382812 13.996094 C 2.382812 14.167969 2.480469 14.207031 2.597656 14.082031 L 6.808594 9.640625 C 6.925781 9.515625 6.914062 9.320312 6.78125 9.210938 L 2.625 5.722656 C 2.492188 5.613281 2.382812 5.664062 2.382812 5.835938 Z M 2.382812 13.996094 "/>
<path style=" stroke:none;fill-rule:nonzero;fill:rgb(0%,0%,0%);fill-opacity:1;" d="M 10.425781 11.355469 C 10.296875 11.464844 10.101562 11.609375 9.992188 11.667969 C 9.992188 11.667969 9.992188 11.667969 9.882812 11.667969 C 9.777344 11.667969 9.777344 11.667969 9.777344 11.667969 C 9.671875 11.609375 9.476562 11.46875 9.34375 11.359375 L 7.980469 10.214844 C 7.851562 10.105469 7.644531 10.117188 7.527344 10.242188 L 3.246094 14.761719 C 3.125 14.886719 3.171875 14.988281 3.34375 14.988281 L 16.425781 14.988281 C 16.597656 14.988281 16.640625 14.886719 16.523438 14.761719 L 12.230469 10.230469 C 12.109375 10.105469 11.90625 10.09375 11.777344 10.207031 Z M 10.425781 11.355469 "/>
</g>
</svg>
