<?xml version="1.0" encoding="UTF-8"?>
<svg xmlns="http://www.w3.org/2000/svg" xmlns:xlink="http://www.w3.org/1999/xlink" width="20pt" height="20pt" viewBox="0 0 20 20" version="1.1">
<g id="surface1">
<path style=" stroke:none;fill-rule:nonzero;fill:rgb(0%,0%,0%);fill-opacity:1;" d="M 19.703125 11.980469 L 19.703125 19.265625 L 15.480469 19.265625 L 15.480469 12.46875 C 15.480469 10.761719 14.867188 9.597656 13.339844 9.597656 C 12.175781 9.597656 11.480469 10.382812 11.175781 11.140625 C 11.0625 11.410156 11.03125 11.789062 11.03125 12.171875 L 11.03125 19.265625 L 6.808594 19.265625 C 6.808594 19.265625 6.867188 7.753906 6.808594 6.5625 L 11.03125 6.5625 L 11.03125 8.363281 C 11.023438 8.375 11.015625 8.390625 11.003906 8.40625 L 11.03125 8.40625 L 11.03125 8.363281 C 11.59375 7.5 12.597656 6.261719 14.839844 6.261719 C 17.621094 6.261719 19.703125 8.078125 19.703125 11.980469 Z M 2.390625 0.4375 C 0.945312 0.4375 0 1.386719 0 2.628906 C 0 3.851562 0.917969 4.828125 2.335938 4.828125 L 2.363281 4.828125 C 3.835938 4.828125 4.753906 3.851562 4.753906 2.628906 C 4.722656 1.386719 3.835938 0.4375 2.390625 0.4375 Z M 0.25 19.265625 L 4.472656 19.265625 L 4.472656 6.5625 L 0.25 6.5625 Z M 0.25 19.265625 "/>
</g>
</svg>
