<?xml version="1.0" encoding="UTF-8"?>
<svg xmlns="http://www.w3.org/2000/svg" xmlns:xlink="http://www.w3.org/1999/xlink" width="20pt" height="20pt" viewBox="0 0 20 20" version="1.1">
<g id="surface1">
<path style=" stroke:none;fill-rule:nonzero;fill:rgb(0.392157%,0%,0.784314%);fill-opacity:1;" d="M 19.695312 3.742188 C 18.972656 4.0625 18.195312 4.28125 17.375 4.375 C 18.210938 3.878906 18.851562 3.085938 19.152344 2.144531 C 18.371094 2.605469 17.507812 2.941406 16.585938 3.125 C 15.847656 2.335938 14.800781 1.847656 13.636719 1.847656 C 11.40625 1.847656 9.597656 3.65625 9.597656 5.890625 C 9.597656 6.207031 9.632812 6.511719 9.699219 6.808594 C 6.339844 6.640625 3.363281 5.03125 1.375 2.585938 C 1.023438 3.183594 0.824219 3.875 0.824219 4.621094 C 0.824219 6.019531 1.539062 7.257812 2.621094 7.980469 C 1.960938 7.957031 1.335938 7.777344 0.792969 7.472656 L 0.792969 7.527344 C 0.792969 9.480469 2.1875 11.113281 4.035156 11.484375 C 3.695312 11.578125 3.339844 11.628906 2.96875 11.628906 C 2.707031 11.628906 2.457031 11.601562 2.207031 11.554688 C 2.722656 13.160156 4.214844 14.324219 5.980469 14.359375 C 4.597656 15.441406 2.855469 16.085938 0.964844 16.085938 C 0.636719 16.085938 0.316406 16.066406 0 16.03125 C 1.789062 17.179688 3.914062 17.847656 6.195312 17.847656 C 13.628906 17.847656 17.691406 11.691406 17.691406 6.355469 L 17.675781 5.828125 C 18.46875 5.261719 19.15625 4.550781 19.695312 3.742188 Z M 19.695312 3.742188 "/>
</g>
</svg>
